<?xml version="1.0" encoding="utf-8"?>
<!-- Generator: Adobe Illustrator 19.1.0, SVG Export Plug-In . SVG Version: 6.00 Build 0)  -->
<svg version="1.1" id="Layer_1" xmlns="http://www.w3.org/2000/svg" xmlns:xlink="http://www.w3.org/1999/xlink" x="0px" y="0px"
	 viewBox="-240 399.4 51.9 42.5" style="enable-background:new -240 399.4 51.9 42.5;" xml:space="preserve">
<style type="text/css">
	.st0{fill:none;stroke:#FFFFFF;stroke-miterlimit:10;}
	.st1{opacity:0.58;fill:none;stroke:#FFFFFF;stroke-miterlimit:10;enable-background:new    ;}
	.st2{fill:none;stroke:#FFFFFF;stroke-width:0.7146;stroke-miterlimit:10;}
	.st3{fill:#FFFFFF;}
</style>
<path class="st0" d="M-216.9,404.7v31.9c0,1.9-1.6,3.5-3.5,3.5h-14c-1.9,0-3.5-1.6-3.5-3.5v-31.9c0-1.9,1.6-3.5,3.5-3.5h14
	C-218.4,401.1-216.9,402.6-216.9,404.7z"/>
<line class="st0" x1="-238" y1="431.7" x2="-216.9" y2="431.7"/>
<line class="st0" x1="-229.2" y1="403.9" x2="-225.6" y2="403.9"/>
<path class="st1" d="M-190.2,422.5v14c0,1.9-1.6,3.5-3.5,3.5h-26.6c1.9,0,3.5-1.6,3.5-3.5V419h23.1
	C-191.9,419-190.2,420.6-190.2,422.5z"/>
<line class="st1" x1="-193.1" y1="427.7" x2="-193.1" y2="431.4"/>
<g>
	<path class="st2" d="M-200.6,414.2c0-5.6-4.5-10-10-10"/>
	<polygon class="st3" points="-212.7,404.2 -210.6,402.9 -210.6,405.5 	"/>
</g>
</svg>
