<svg width="42" height="12" viewBox="0 0 42 12" xmlns="http://www.w3.org/2000/svg" xmlns:xlink="http://www.w3.org/1999/xlink"><title>Page 1</title><defs><path id="a" d="M9.108 1.744V.119H.146v1.625h8.962z"/><path id="c" d="M0 11.74h12.592V.037H0V11.74z"/><path id="e" d="M10.908 4.876V3.251H1.946v1.625h8.962z"/><path id="g" d="M0 11.891h12.592V.186H0v11.705z"/></defs><g fill="none" fill-rule="evenodd"><path d="M2.72 5.642c2.287-.646 5.13-.333 7.072.78.141.08.222.217.233.36a.45.45 0 0 0-.232-.399C7.849 5.27 5.007 4.957 2.72 5.603a.46.46 0 0 0-.346.482.46.46 0 0 1 .346-.443M2.938 7.491c2.399-.51 4.456-.29 6.115.654a.362.362 0 0 1 .186.286.357.357 0 0 0-.186-.324c-1.66-.945-3.716-1.165-6.115-.654a.37.37 0 0 0-.303.379.372.372 0 0 1 .303-.34" fill="#000"/><g transform="translate(1.8 3.133)"><mask id="b" fill="#fff"><use xlink:href="#a"/></mask><path d="M.564.526c2.224-.629 5.921-.507 8.258.785.172.095.272.26.286.433a.54.54 0 0 0-.286-.472C6.485-.02 2.788-.14.564.487a.55.55 0 0 0-.415.577.552.552 0 0 1 .415-.538" fill="#000" mask="url(#b)"/></g><g transform="translate(0 .15)"><mask id="d" fill="#fff"><use xlink:href="#c"/></mask><path d="M10.02 5.237C7.99 4.114 4.643 4.01 2.706 4.558c-.311.088-.64-.076-.735-.365-.094-.29.082-.597.393-.685 2.224-.629 5.921-.508 8.258.785.28.155.371.491.205.752a.613.613 0 0 1-.807.192M9.954 6.9a.512.512 0 0 1-.675.15c-1.692-.968-4.272-1.25-6.274-.683-.26.073-.534-.064-.613-.305-.078-.242.069-.497.328-.57 2.286-.647 5.13-.334 7.072.78a.44.44 0 0 1 .162.628m-.77 1.597a.409.409 0 0 1-.54.122c-1.479-.842-3.34-1.032-5.53-.566-.212.045-.423-.078-.47-.274-.05-.197.083-.394.294-.438 2.399-.511 4.456-.291 6.115.654.185.105.244.33.13.502M6.297.036C2.82.036 0 2.662 0 5.902c0 3.045 2.489 5.547 5.674 5.839h1.245c3.185-.292 5.673-2.794 5.673-5.839 0-3.24-2.819-5.866-6.296-5.866" fill="#FFF" mask="url(#d)"/></g><path d="M17.13 5.602c-1.087-.241-1.281-.41-1.281-.767 0-.337.34-.563.846-.563.49 0 .976.172 1.486.526.015.01.034.015.053.012a.07.07 0 0 0 .047-.027l.531-.697a.064.064 0 0 0-.013-.09c-.607-.454-1.29-.674-2.088-.674-1.174 0-1.994.656-1.994 1.595 0 1.007.708 1.364 1.93 1.64 1.04.222 1.216.41 1.216.744 0 .37-.356.6-.927.6-.634 0-1.152-.198-1.731-.665a.078.078 0 0 0-.052-.016.073.073 0 0 0-.049.023l-.595.66a.063.063 0 0 0 .007.092c.673.56 1.502.856 2.396.856 1.265 0 2.082-.644 2.082-1.64 0-.843-.54-1.309-1.864-1.609M22.774 6.731c0 .711-.47 1.208-1.144 1.208-.665 0-1.167-.52-1.167-1.208s.502-1.207 1.167-1.207c.663 0 1.144.507 1.144 1.207m-.918-2.128c-.549 0-.998.202-1.37.614v-.464c0-.037-.03-.067-.07-.067h-.974c-.039 0-.07.03-.07.067v5.156c0 .037.031.066.07.066h.974c.04 0 .07-.03.07-.066V8.281c.372.388.821.578 1.37.578 1.018 0 2.05-.731 2.05-2.128 0-1.397-1.032-2.128-2.05-2.128M26.549 7.946c-.698 0-1.224-.522-1.224-1.215 0-.695.508-1.2 1.208-1.2.702 0 1.232.522 1.232 1.216 0 .695-.511 1.2-1.216 1.2m0-3.344c-1.312 0-2.34.942-2.34 2.144 0 1.188 1.021 2.12 2.324 2.12 1.316 0 2.347-.939 2.347-2.136 0-1.193-1.024-2.128-2.331-2.128M31.682 4.686H30.61v-1.02c0-.037-.032-.067-.071-.067h-.974c-.039 0-.071.03-.071.067v1.02h-.468c-.04 0-.071.03-.071.067v.78c0 .036.032.066.07.066h.469v2.017c0 .815.435 1.228 1.294 1.228.35 0 .639-.067.912-.211a.065.065 0 0 0 .036-.058v-.742a.066.066 0 0 0-.034-.057.076.076 0 0 0-.07-.003 1.3 1.3 0 0 1-.57.129c-.313 0-.452-.132-.452-.429V5.6h1.07c.04 0 .072-.03.072-.067v-.78c0-.036-.032-.066-.071-.066M35.414 4.69v-.125c0-.369.152-.533.492-.533.203 0 .366.037.548.094a.076.076 0 0 0 .064-.009.065.065 0 0 0 .03-.054v-.764c0-.03-.02-.055-.05-.064a2.851 2.851 0 0 0-.81-.108c-.899 0-1.374.471-1.374 1.363v.192h-.467c-.04 0-.072.03-.072.067v.783c0 .037.032.067.072.067h.467v3.11c0 .038.032.067.071.067h.974c.039 0 .07-.03.07-.066V5.599h.91l1.392 3.11c-.158.327-.314.392-.526.392-.171 0-.352-.048-.536-.142a.079.079 0 0 0-.057-.005.071.071 0 0 0-.042.036l-.33.674a.063.063 0 0 0 .03.086c.345.174.656.248 1.04.248.719 0 1.116-.312 1.466-1.151l1.689-4.066a.063.063 0 0 0-.007-.062.073.073 0 0 0-.06-.029h-1.012a.072.072 0 0 0-.068.045L38.28 7.498l-1.137-2.765a.071.071 0 0 0-.066-.043h-1.663zM33.25 4.686h-.973c-.04 0-.072.03-.072.067V8.71c0 .036.032.066.072.066h.973c.04 0 .071-.03.071-.066V4.753c0-.037-.032-.067-.07-.067M32.768 2.885c-.385 0-.698.29-.698.65 0 .36.313.65.698.65.386 0 .699-.29.699-.65 0-.36-.313-.65-.699-.65M41.336 5.08h-.179v.217h.179c.089 0 .142-.042.142-.109 0-.07-.053-.108-.142-.108m.115.302l.194.253h-.163l-.175-.232h-.15v.232h-.136v-.67h.32c.167 0 .277.08.277.214 0 .11-.068.177-.167.203m-.152-.64c-.35 0-.616.26-.616.578 0 .318.264.575.613.575.35 0 .617-.26.617-.578 0-.319-.264-.575-.614-.575m-.003 1.217c-.385 0-.685-.289-.685-.639 0-.35.304-.641.688-.641.386 0 .686.288.686.638 0 .35-.304.642-.689.642" fill="#FFF"/><path d="M2.72 5.642c2.286-.646 5.13-.333 7.073.78.14.08.221.217.232.36a.45.45 0 0 0-.232-.399C7.849 5.27 5.007 4.957 2.72 5.603a.46.46 0 0 0-.346.482.46.46 0 0 1 .346-.443M2.938 7.491c2.399-.51 4.456-.29 6.115.654a.362.362 0 0 1 .186.286.357.357 0 0 0-.186-.324c-1.66-.945-3.716-1.165-6.115-.654a.37.37 0 0 0-.303.379.372.372 0 0 1 .303-.34" fill="#000"/><mask id="f" fill="#fff"><use xlink:href="#e"/></mask><path d="M2.364 3.659c2.224-.63 5.921-.508 8.258.785.172.095.272.26.286.432a.54.54 0 0 0-.286-.471C8.285 3.113 4.588 2.99 2.364 3.62a.55.55 0 0 0-.415.577.552.552 0 0 1 .415-.538" fill="#000" mask="url(#f)"/><mask id="h" fill="#fff"><use xlink:href="#g"/></mask><path d="M10.02 5.387C7.99 4.264 4.643 4.161 2.706 4.71c-.311.088-.64-.076-.735-.366-.094-.29.082-.596.393-.684 2.224-.63 5.921-.508 8.258.784.28.155.371.492.205.752a.613.613 0 0 1-.807.192m-.066 1.664a.512.512 0 0 1-.675.15c-1.692-.969-4.272-1.25-6.274-.683-.26.073-.534-.064-.613-.305-.078-.242.069-.497.328-.57 2.286-.647 5.13-.334 7.072.779a.44.44 0 0 1 .162.629m-.77 1.597a.409.409 0 0 1-.54.122c-1.479-.842-3.34-1.032-5.53-.566-.212.045-.423-.078-.47-.275-.05-.197.083-.393.294-.437 2.399-.511 4.456-.292 6.115.653.185.106.244.33.13.503M6.297.186C2.82.186 0 2.813 0 6.053 0 9.098 2.49 11.6 5.674 11.891h1.245c3.185-.29 5.673-2.793 5.673-5.838 0-3.24-2.819-5.867-6.296-5.867M17.13 5.602c-1.087-.241-1.281-.41-1.281-.767 0-.337.34-.563.846-.563.49 0 .976.172 1.486.526.015.01.034.015.053.012a.07.07 0 0 0 .047-.027l.531-.697a.064.064 0 0 0-.013-.09c-.607-.454-1.29-.674-2.088-.674-1.174 0-1.994.656-1.994 1.595 0 1.007.708 1.364 1.93 1.64 1.04.222 1.216.41 1.216.744 0 .37-.356.6-.927.6-.634 0-1.152-.198-1.731-.665a.078.078 0 0 0-.052-.016.073.073 0 0 0-.049.023l-.595.66a.063.063 0 0 0 .007.092c.673.56 1.502.856 2.396.856 1.265 0 2.082-.644 2.082-1.64 0-.843-.54-1.309-1.864-1.609M22.774 6.731c0 .711-.47 1.208-1.144 1.208-.665 0-1.167-.52-1.167-1.208s.502-1.207 1.167-1.207c.663 0 1.144.507 1.144 1.207m-.918-2.128c-.549 0-.998.202-1.37.614v-.464c0-.037-.03-.067-.07-.067h-.974c-.039 0-.07.03-.07.067v5.156c0 .037.031.066.07.066h.974c.04 0 .07-.03.07-.066V8.281c.372.388.821.578 1.37.578 1.018 0 2.05-.731 2.05-2.128 0-1.397-1.032-2.128-2.05-2.128M26.549 7.946c-.698 0-1.224-.522-1.224-1.215 0-.695.508-1.2 1.208-1.2.702 0 1.232.522 1.232 1.216 0 .695-.511 1.2-1.216 1.2m0-3.344c-1.312 0-2.34.942-2.34 2.144 0 1.188 1.021 2.12 2.324 2.12 1.316 0 2.347-.939 2.347-2.136 0-1.193-1.024-2.128-2.331-2.128M31.682 4.686H30.61v-1.02c0-.037-.032-.067-.071-.067h-.974c-.039 0-.071.03-.071.067v1.02h-.468c-.04 0-.071.03-.071.067v.78c0 .036.032.066.07.066h.469v2.017c0 .815.435 1.228 1.294 1.228.35 0 .639-.067.912-.211a.065.065 0 0 0 .036-.058v-.742a.066.066 0 0 0-.034-.057.076.076 0 0 0-.07-.003 1.3 1.3 0 0 1-.57.129c-.313 0-.452-.132-.452-.429V5.6h1.07c.04 0 .072-.03.072-.067v-.78c0-.036-.032-.066-.071-.066M35.414 4.69v-.125c0-.369.152-.533.492-.533.203 0 .366.037.548.094a.076.076 0 0 0 .064-.009.065.065 0 0 0 .03-.054v-.764c0-.03-.02-.055-.05-.064a2.851 2.851 0 0 0-.81-.108c-.899 0-1.374.471-1.374 1.363v.192h-.467c-.04 0-.072.03-.072.067v.783c0 .037.032.067.072.067h.467v3.11c0 .038.032.067.071.067h.974c.039 0 .07-.03.07-.066V5.599h.91l1.392 3.11c-.158.327-.314.392-.526.392-.171 0-.352-.048-.536-.142a.079.079 0 0 0-.057-.005.071.071 0 0 0-.042.036l-.33.674a.063.063 0 0 0 .03.086c.345.174.656.248 1.04.248.719 0 1.116-.312 1.466-1.151l1.689-4.066a.063.063 0 0 0-.007-.062.073.073 0 0 0-.06-.029h-1.012a.072.072 0 0 0-.068.045L38.28 7.498l-1.137-2.765a.071.071 0 0 0-.066-.043h-1.663zM33.25 4.686h-.973c-.04 0-.072.03-.072.067V8.71c0 .036.032.066.072.066h.973c.04 0 .071-.03.071-.066V4.753c0-.037-.032-.067-.07-.067M32.768 2.885c-.385 0-.698.29-.698.65 0 .36.313.65.698.65.386 0 .699-.29.699-.65 0-.36-.313-.65-.699-.65M41.336 5.08h-.179v.217h.179c.089 0 .142-.042.142-.109 0-.07-.053-.108-.142-.108m.115.302l.194.253h-.163l-.175-.232h-.15v.232h-.136v-.67h.32c.167 0 .277.08.277.214 0 .11-.068.177-.167.203m-.152-.64c-.35 0-.616.26-.616.578 0 .318.264.575.613.575.35 0 .617-.26.617-.578 0-.319-.264-.575-.614-.575m-.003 1.217c-.385 0-.685-.289-.685-.639 0-.35.304-.641.688-.641.386 0 .686.288.686.638 0 .35-.304.642-.689.642" fill="#FFF" mask="url(#h)"/></g></svg>