<svg id="Layer_1" data-name="Layer 1" xmlns="http://www.w3.org/2000/svg" viewBox="0 0 560.66 61.02"><defs><style>.cls-1{fill:#fff;fill-rule:evenodd}</style></defs><title>logo_rehab</title><path class="cls-1" d="M26.18 34.17V18.65H15.52v15.52H0v10.67h15.52v15.52h10.66V44.84H41.7V34.17H26.18z" id="_" data-name="+"/><path class="cls-1" d="M116.89 65.2v-6.79h-10.38v41.72h10.38V85.31c0-12.66 4.69-18.37 11.3-18.37a8.53 8.53 0 0 1 4.35 1.16l1.93-9.52a16.85 16.85 0 0 0-5.11-.83c-4.94 0-9.46 2.73-12.47 7.45zm45.74-7.45c-14.48 0-20.26 11.59-20.26 21.52s5.78 21.52 20.26 21.52c9.21 0 15.57-4.06 19.17-12.17l-8.37-3.06c-2.51 4.31-5.94 6.46-10.21 6.46a9.64 9.64 0 0 1-10-9.43h29v-4.23a23 23 0 0 0-4.52-13.66c-2.93-4.22-8.38-6.95-15.07-6.95zm-9.13 16.72a9.19 9.19 0 0 1 9.12-7.95q7.28 0 9 7.95H153.5zm66.41-16.72a15 15 0 0 0-13.39 7.37V41.53h-10.37v58.6h10.38V82.5c0-10.51 4.52-16 9.88-16q6.28 0 6.28 7.45v26.15h10.38V70.33c-.01-8.28-5.07-12.58-13.15-12.58zm44.13 0c-8.46 0-14.73 4.63-16.07 11.59l8.79 2c1.09-3.23 3.51-4.8 7.28-4.8 4.94 0 7.37 2.07 7.37 6.12v1.82h-7c-10.71 0-18 5.38-18 13.66 0 8 5.36 12.66 12.81 12.66a16 16 0 0 0 13-6l1.09 5.3h8.54V75.21c-.06-11.67-6-17.46-17.85-17.46zm7.37 25.66a7.49 7.49 0 0 1-3 6.21 10.41 10.41 0 0 1-6.78 2.4 4 4 0 0 1-4.36-4.02c0-3.56 2.43-5.38 7.2-5.38h6.95v.83zm46.37-25.66c-4.1 0-8.29 2.07-10.21 4.47V41.53h-10.38v58.6h10.38v-4.31c1.34 2.4 5.44 5 10.21 5 12.39 0 19.25-8.36 19.25-21.52s-6.86-21.55-19.25-21.55zm5.61 30.87a9.06 9.06 0 0 1-14.06.08c-1.76-2.24-2.68-5.38-2.68-9.44s.92-7.12 2.68-9.35a9 9 0 0 1 14.06 0c1.84 2.24 2.76 5.38 2.76 9.35s-.92 7.13-2.76 9.36zm50.15-10.68a29.66 29.66 0 0 0-3-1.57l-3.6-1.24-3-1.08c-2.68-1-4-2.32-4-4.06 0-2.23 1.76-3.48 3.85-3.48a8.77 8.77 0 0 1 7 3.64l6.2-5.63a15.8 15.8 0 0 0-13.22-6.79 13.49 13.49 0 0 0-9.77 3.58 11.4 11.4 0 0 0-3.77 8.6c0 6 3.18 9 8.54 11.26 1.59.66 4.52 1.57 5.94 2.24a14.43 14.43 0 0 1 2.34 1 3.36 3.36 0 0 1 2.26 3.14c0 3-1.76 4.47-5.19 4.47-3.94 0-6.78-2.32-8.46-6.87l-8.29 4.39a19.35 19.35 0 0 0 6.28 7.86 16.84 16.84 0 0 0 10.46 3.39A14.67 14.67 0 0 0 375 96.73a13.3 13.3 0 0 0 4.18-9.85 10.54 10.54 0 0 0-2.59-6.79 9.31 9.31 0 0 0-3.05-2.14zM410.64 92c-3.68 0-5.52-1.82-5.52-6.79v-18h11.13v-8.8h-11.14V41.53L394.73 48v10.41h-6.53v8.78h6.53v18.2c0 10.18 5.78 15.39 15.49 15.39a16.25 16.25 0 0 0 6.86-1.49L414.65 91a8.5 8.5 0 0 1-4.01 1zm44.15-17c0 10.51-4.27 17-9.63 17-4 0-6-2.32-6-6.87V58.41h-10.4v29.8c0 8.19 5.19 12.58 13 12.58 5.27 0 9.63-2.48 13.06-7.36v6.7h10.38V58.41h-10.41V75zm54-12.83c-1.93-2.4-6.11-4.47-10.21-4.47-12.39 0-19.25 8.36-19.25 21.52s6.86 21.52 19.25 21.52c4.77 0 8.87-2.57 10.21-5v4.31h10.38V41.53h-10.41v20.69zm-1.84 26.49A8.41 8.41 0 0 1 500 92a8.76 8.76 0 0 1-7-3.39c-1.84-2.24-2.76-5.38-2.76-9.35s.92-7.12 2.76-9.35a8.76 8.76 0 0 1 7-3.39 8.48 8.48 0 0 1 6.95 3.39c1.84 2.24 2.76 5.3 2.76 9.35s-.95 7.21-2.79 9.45zm28.78-47a6.69 6.69 0 0 0 0 9.44 6.87 6.87 0 0 0 9.54 0 6.69 6.69 0 0 0 0-9.44 6.88 6.88 0 0 0-9.57.03zm-.42 58.43h10.38V58.41h-10.41v41.72zm60.62-36.25c-3.85-4.06-9-6.12-15.65-6.12s-11.8 2.07-15.65 6.12-5.78 9.19-5.78 15.4 1.93 11.42 5.78 15.48 9 6 15.65 6 11.8-2 15.65-6 5.77-9.27 5.77-15.48-1.96-11.31-5.81-15.36zm-8 24.5a10 10 0 0 1-15.4 0 14.44 14.44 0 0 1-2.85-9.1 14 14 0 0 1 2.85-9 9.82 9.82 0 0 1 15.4 0 14 14 0 0 1 2.85 9 14.44 14.44 0 0 1-2.84 9.13z" transform="translate(-41.01 -39.77)" id="rehabstudio"/></svg>