<svg xmlns="http://www.w3.org/2000/svg" width="819" height="432" viewBox="0 0 819 432"><g fill="#FFF"><path d="M61 60h156V8H9v416h208v-52H61zM602 8v52h156v312H602v52h208V8z"/><path d="M628.253 280.886c-18.068 0-35.17-10.1-48.408-21.84l-16.852 46.75c20.965 13.131 43.828 20.408 67.139 20.408 20.502 0 41.771-5.721 57.693-19.41 16.171-13.908 21.002-31.629 21.002-52.08 0-33.359-21.824-51.125-50.127-59.617l-13.488-4.07c-9.141-3.031-23.437-7.67-23.437-19.67 0-11.484 12.954-17.244 22.632-17.244 12.934 0 25.295 5.461 36.834 14.557l15.939-44.191c-19.355-9.705-41.699-15.166-60.305-15.166-40.734 0-70.109 25-70.109 66.77 0 37.299 21.844 50.992 55.009 60.523 11.325 3.297 32.06 8.492 32.06 23.484 0 14.472-13.203 20.796-25.582 20.796zM189.244 114H112v208h51v-52h26.244c42.703 0 77.319-34.912 77.319-77.977 0-43.152-34.616-78.023-77.319-78.023zm0 104H163v-52h26.244c14.241 0 25.762 11.661 25.762 26.044 0 14.295-11.521 25.956-25.762 25.956zM292 114h52v208h-52zM437.999 114l-75.387 208h55.422l6.869-21h66.656l6.671 21h55.226l-75.208-208h-40.249zm1.502 142l18.623-63.258L477.337 256h-37.836z"/></g></svg>