<?xml version="1.0" encoding="UTF-8" standalone="no"?>
<svg width="216px" height="41px" viewBox="0 0 216 41" version="1.1" xmlns="http://www.w3.org/2000/svg" xmlns:xlink="http://www.w3.org/1999/xlink">
    <!-- Generator: Sketch 3.7 (28169) - http://www.bohemiancoding.com/sketch -->
    <title>Listen to albums as </title>
    <desc>Created with Sketch.</desc>
    <defs></defs>
    <g id="final" stroke="none" stroke-width="1" fill="none" fill-rule="evenodd" opacity="0.4">
        <g id="Preloader" transform="translate(-100.000000, -200.000000)" fill="#FFFFFF">
            <path d="M100.62,211.696 C100.62,211.856 100.748,212 100.924,212 L106.62,212 C106.796,212 106.924,211.856 106.924,211.696 L106.924,210.816 C106.924,210.656 106.796,210.512 106.62,210.512 L102.284,210.512 L102.284,201.104 C102.284,200.944 102.14,200.8 101.98,200.8 L100.924,200.8 C100.748,200.8 100.62,200.944 100.62,201.104 L100.62,211.696 Z M108.828,202.992 C109.356,202.992 109.772,202.576 109.772,202.064 C109.772,201.536 109.356,201.12 108.828,201.12 C108.316,201.12 107.916,201.536 107.916,202.064 C107.916,202.576 108.316,202.992 108.828,202.992 L108.828,202.992 Z M108.092,211.696 C108.092,211.856 108.236,212 108.396,212 L109.308,212 C109.468,212 109.612,211.856 109.612,211.696 L109.612,205.904 C109.612,205.744 109.468,205.6 109.308,205.6 L108.396,205.6 C108.236,205.6 108.092,205.744 108.092,205.904 L108.092,211.696 Z M111.404,211.504 C111.74,211.776 112.444,212.16 113.516,212.16 C114.94,212.16 115.884,211.28 115.884,210.288 C115.884,209.088 114.924,208.592 113.756,208.08 C113.132,207.808 112.732,207.632 112.732,207.216 C112.732,206.976 112.908,206.736 113.452,206.736 C114.06,206.736 114.764,207.072 114.764,207.072 C114.892,207.136 115.1,207.088 115.18,206.944 L115.468,206.4 C115.564,206.24 115.484,206.032 115.34,205.936 C115.02,205.728 114.348,205.44 113.452,205.44 C111.916,205.44 111.26,206.4 111.26,207.2 C111.26,208.256 112.092,208.864 113.084,209.296 C113.964,209.696 114.316,209.904 114.316,210.336 C114.316,210.688 114.012,210.88 113.532,210.88 C112.748,210.88 112.044,210.464 112.044,210.464 C111.884,210.368 111.708,210.416 111.644,210.544 L111.308,211.168 C111.244,211.296 111.308,211.44 111.404,211.504 L111.404,211.504 Z M117.836,210.256 C117.836,211.392 118.204,212.16 119.468,212.16 C120.236,212.16 121.18,211.776 121.34,211.68 C121.5,211.6 121.564,211.472 121.484,211.296 L121.196,210.592 C121.132,210.448 121.036,210.352 120.828,210.448 C120.636,210.544 120.188,210.736 119.852,210.736 C119.548,210.736 119.34,210.64 119.34,210.096 L119.34,206.928 L120.972,206.928 C121.148,206.928 121.276,206.784 121.276,206.624 L121.276,205.904 C121.276,205.728 121.148,205.6 120.972,205.6 L119.34,205.6 L119.34,203.808 C119.34,203.648 119.212,203.504 119.052,203.504 L118.14,203.52 C117.98,203.52 117.836,203.664 117.836,203.824 L117.836,205.6 L117.164,205.6 C116.988,205.6 116.86,205.728 116.86,205.904 L116.86,206.624 C116.86,206.784 116.988,206.928 117.164,206.928 L117.836,206.928 L117.836,210.256 Z M122.492,208.8 C122.492,210.64 123.772,212.16 125.708,212.16 C126.78,212.16 127.612,211.76 128.076,211.36 C128.268,211.2 128.22,211.072 128.108,210.944 L127.66,210.336 C127.532,210.176 127.42,210.24 127.228,210.352 C126.908,210.56 126.38,210.816 125.804,210.816 C124.764,210.816 124.012,209.968 123.964,209.104 L128.316,209.104 C128.46,209.104 128.588,208.992 128.604,208.832 C128.62,208.72 128.636,208.512 128.636,208.4 C128.636,206.688 127.356,205.44 125.692,205.44 C123.772,205.44 122.492,206.992 122.492,208.8 L122.492,208.8 Z M124.044,208.096 C124.14,207.296 124.812,206.672 125.676,206.672 C126.46,206.672 127.1,207.328 127.148,208.096 L124.044,208.096 Z M130.172,211.696 C130.172,211.856 130.316,212 130.476,212 L131.308,212 C131.58,212 131.676,211.904 131.676,211.696 L131.676,207.792 C131.756,207.568 132.444,206.832 133.452,206.832 C134.284,206.832 134.78,207.392 134.78,208.416 L134.78,211.696 C134.78,211.856 134.908,212 135.084,212 L135.996,212 C136.156,212 136.3,211.856 136.3,211.696 L136.3,208.48 C136.3,206.816 135.58,205.44 133.628,205.44 C132.348,205.44 131.5,206.208 131.388,206.336 L131.196,205.792 C131.164,205.68 131.068,205.6 130.94,205.6 L130.476,205.6 C130.316,205.6 130.172,205.744 130.172,205.904 L130.172,211.696 Z M142.236,210.256 C142.236,211.392 142.604,212.16 143.868,212.16 C144.636,212.16 145.58,211.776 145.74,211.68 C145.9,211.6 145.964,211.472 145.884,211.296 L145.596,210.592 C145.532,210.448 145.436,210.352 145.228,210.448 C145.036,210.544 144.588,210.736 144.252,210.736 C143.948,210.736 143.74,210.64 143.74,210.096 L143.74,206.928 L145.372,206.928 C145.548,206.928 145.676,206.784 145.676,206.624 L145.676,205.904 C145.676,205.728 145.548,205.6 145.372,205.6 L143.74,205.6 L143.74,203.808 C143.74,203.648 143.612,203.504 143.452,203.504 L142.54,203.52 C142.38,203.52 142.236,203.664 142.236,203.824 L142.236,205.6 L141.564,205.6 C141.388,205.6 141.26,205.728 141.26,205.904 L141.26,206.624 C141.26,206.784 141.388,206.928 141.564,206.928 L142.236,206.928 L142.236,210.256 Z M146.876,208.784 C146.876,210.624 148.316,212.16 150.108,212.16 C151.9,212.16 153.34,210.624 153.34,208.784 C153.34,206.976 151.9,205.44 150.108,205.44 C148.316,205.44 146.876,206.976 146.876,208.784 L146.876,208.784 Z M148.3,208.784 C148.3,207.712 149.1,206.832 150.108,206.832 C151.116,206.832 151.916,207.712 151.916,208.784 C151.916,209.888 151.116,210.784 150.108,210.784 C149.1,210.784 148.3,209.888 148.3,208.784 L148.3,208.784 Z M157.996,210.016 C157.996,211.344 158.86,212.16 160.06,212.16 C161.052,212.16 161.676,211.68 162.028,211.344 L162.188,211.776 C162.252,211.936 162.316,212 162.46,212 L162.908,212 C163.068,212 163.212,211.856 163.212,211.696 L163.212,208.288 C163.212,206.688 163.02,205.44 160.972,205.44 C159.788,205.44 158.876,205.76 158.764,205.808 C158.62,205.856 158.508,205.968 158.556,206.176 L158.684,206.768 C158.732,206.944 158.844,207.072 159.036,207.024 C159.372,206.928 160.092,206.736 160.828,206.736 C161.644,206.736 161.836,207.136 161.82,208.144 C161.82,208.144 161.228,207.952 160.556,207.952 C158.924,207.952 157.996,208.848 157.996,210.016 L157.996,210.016 Z M159.388,210 C159.388,209.344 159.916,208.944 160.684,208.944 C161.26,208.944 161.708,209.136 161.804,209.2 L161.804,210.224 C161.612,210.544 161.004,211.024 160.364,211.024 C159.772,211.024 159.388,210.576 159.388,210 L159.388,210 Z M165.228,211.696 C165.228,211.856 165.372,212 165.532,212 L166.444,212 C166.604,212 166.748,211.856 166.748,211.696 L166.748,201.104 C166.748,200.944 166.604,200.8 166.444,200.8 L165.532,200.8 C165.372,200.8 165.228,200.944 165.228,201.104 L165.228,211.696 Z M168.828,211.696 C168.828,211.856 168.972,212 169.132,212 L169.612,212 C169.756,212 169.852,211.888 169.9,211.728 L170.028,211.264 C170.028,211.264 170.796,212.16 172.06,212.16 C173.756,212.16 175.052,210.64 175.052,208.8 C175.052,206.928 173.676,205.44 171.9,205.44 C171.084,205.44 170.508,205.744 170.364,205.792 L170.364,201.104 C170.364,200.944 170.22,200.8 170.06,200.8 L169.132,200.8 C168.972,200.8 168.828,200.944 168.828,201.104 L168.828,211.696 Z M170.348,209.824 L170.348,207.2 C170.348,207.2 170.908,206.832 171.74,206.832 C172.812,206.832 173.564,207.712 173.564,208.8 C173.564,209.872 172.892,210.784 171.868,210.784 C170.892,210.784 170.428,210 170.348,209.824 L170.348,209.824 Z M176.572,209.136 C176.572,210.8 177.244,212.16 179.164,212.16 C180.46,212.16 181.132,211.408 181.276,211.28 L181.436,211.744 C181.484,211.888 181.564,212 181.724,212 L182.172,212 C182.332,212 182.476,211.856 182.476,211.696 L182.476,205.904 C182.476,205.744 182.332,205.6 182.172,205.6 L181.34,205.6 C181.116,205.6 180.988,205.648 180.988,205.904 L180.988,209.728 C180.94,210.016 180.348,210.784 179.404,210.784 C178.588,210.784 178.092,210.224 178.092,209.184 L178.092,205.904 C178.092,205.744 177.948,205.6 177.788,205.6 L176.876,205.6 C176.716,205.6 176.572,205.744 176.572,205.904 L176.572,209.136 Z M184.556,211.696 C184.556,211.856 184.7,212 184.86,212 L185.756,212 C185.916,212 186.06,211.856 186.06,211.696 L186.06,207.792 C186.14,207.584 186.684,206.832 187.644,206.832 C188.54,206.832 189.004,207.392 189.004,208.416 L189.004,211.696 C189.004,211.856 189.132,212 189.308,212 L190.156,212 C190.316,212 190.46,211.856 190.46,211.696 L190.46,208.384 C190.46,208.064 190.444,207.76 190.412,207.616 C190.524,207.52 191.084,206.832 192.06,206.832 C192.924,206.832 193.388,207.408 193.388,208.416 L193.388,211.696 C193.388,211.856 193.516,212 193.692,212 L194.588,212 C194.764,212 194.892,211.856 194.892,211.696 L194.892,208.48 C194.892,206.816 194.204,205.44 192.252,205.44 C191.036,205.44 190.108,206.288 189.932,206.464 C189.468,205.808 188.796,205.44 187.868,205.44 C186.636,205.44 185.9,206.192 185.756,206.336 L185.58,205.792 C185.532,205.68 185.452,205.6 185.308,205.6 L184.86,205.6 C184.7,205.6 184.556,205.744 184.556,205.904 L184.556,211.696 Z M196.604,211.504 C196.94,211.776 197.644,212.16 198.716,212.16 C200.14,212.16 201.084,211.28 201.084,210.288 C201.084,209.088 200.124,208.592 198.956,208.08 C198.332,207.808 197.932,207.632 197.932,207.216 C197.932,206.976 198.108,206.736 198.652,206.736 C199.26,206.736 199.964,207.072 199.964,207.072 C200.092,207.136 200.3,207.088 200.38,206.944 L200.668,206.4 C200.764,206.24 200.684,206.032 200.54,205.936 C200.22,205.728 199.548,205.44 198.652,205.44 C197.116,205.44 196.46,206.4 196.46,207.2 C196.46,208.256 197.292,208.864 198.284,209.296 C199.164,209.696 199.516,209.904 199.516,210.336 C199.516,210.688 199.212,210.88 198.732,210.88 C197.948,210.88 197.244,210.464 197.244,210.464 C197.084,210.368 196.908,210.416 196.844,210.544 L196.508,211.168 C196.444,211.296 196.508,211.44 196.604,211.504 L196.604,211.504 Z M205.676,210.016 C205.676,211.344 206.54,212.16 207.74,212.16 C208.732,212.16 209.356,211.68 209.708,211.344 L209.868,211.776 C209.932,211.936 209.996,212 210.14,212 L210.588,212 C210.748,212 210.892,211.856 210.892,211.696 L210.892,208.288 C210.892,206.688 210.7,205.44 208.652,205.44 C207.468,205.44 206.556,205.76 206.444,205.808 C206.3,205.856 206.188,205.968 206.236,206.176 L206.364,206.768 C206.412,206.944 206.524,207.072 206.716,207.024 C207.052,206.928 207.772,206.736 208.508,206.736 C209.324,206.736 209.516,207.136 209.5,208.144 C209.5,208.144 208.908,207.952 208.236,207.952 C206.604,207.952 205.676,208.848 205.676,210.016 L205.676,210.016 Z M207.068,210 C207.068,209.344 207.596,208.944 208.364,208.944 C208.94,208.944 209.388,209.136 209.484,209.2 L209.484,210.224 C209.292,210.544 208.684,211.024 208.044,211.024 C207.452,211.024 207.068,210.576 207.068,210 L207.068,210 Z M212.62,211.504 C212.956,211.776 213.66,212.16 214.732,212.16 C216.156,212.16 217.1,211.28 217.1,210.288 C217.1,209.088 216.14,208.592 214.972,208.08 C214.348,207.808 213.948,207.632 213.948,207.216 C213.948,206.976 214.124,206.736 214.668,206.736 C215.276,206.736 215.98,207.072 215.98,207.072 C216.108,207.136 216.316,207.088 216.396,206.944 L216.684,206.4 C216.78,206.24 216.7,206.032 216.556,205.936 C216.236,205.728 215.564,205.44 214.668,205.44 C213.132,205.44 212.476,206.4 212.476,207.2 C212.476,208.256 213.308,208.864 214.3,209.296 C215.18,209.696 215.532,209.904 215.532,210.336 C215.532,210.688 215.228,210.88 214.748,210.88 C213.964,210.88 213.26,210.464 213.26,210.464 C213.1,210.368 212.924,210.416 212.86,210.544 L212.524,211.168 C212.46,211.296 212.524,211.44 212.62,211.504 L212.62,211.504 Z M222.572,210.256 C222.572,211.392 222.94,212.16 224.204,212.16 C224.972,212.16 225.916,211.776 226.076,211.68 C226.236,211.6 226.3,211.472 226.22,211.296 L225.932,210.592 C225.868,210.448 225.772,210.352 225.564,210.448 C225.372,210.544 224.924,210.736 224.588,210.736 C224.284,210.736 224.076,210.64 224.076,210.096 L224.076,206.928 L225.708,206.928 C225.884,206.928 226.012,206.784 226.012,206.624 L226.012,205.904 C226.012,205.728 225.884,205.6 225.708,205.6 L224.076,205.6 L224.076,203.808 C224.076,203.648 223.948,203.504 223.788,203.504 L222.876,203.52 C222.716,203.52 222.572,203.664 222.572,203.824 L222.572,205.6 L221.9,205.6 C221.724,205.6 221.596,205.728 221.596,205.904 L221.596,206.624 C221.596,206.784 221.724,206.928 221.9,206.928 L222.572,206.928 L222.572,210.256 Z M227.692,211.696 C227.692,211.856 227.836,212 227.996,212 L228.908,212 C229.116,212 229.228,211.872 229.228,211.696 L229.228,207.84 C229.308,207.568 229.98,206.832 230.956,206.832 C231.788,206.832 232.316,207.408 232.316,208.448 L232.316,211.696 C232.316,211.856 232.444,212 232.62,212 L233.516,212 C233.676,212 233.82,211.856 233.82,211.696 L233.82,208.48 C233.82,206.736 232.956,205.44 231.148,205.44 C230.124,205.44 229.388,206.016 229.228,206.128 L229.228,201.104 C229.228,200.944 229.084,200.8 228.924,200.8 L227.996,200.8 C227.836,200.8 227.692,200.944 227.692,201.104 L227.692,211.696 Z M235.356,208.8 C235.356,210.64 236.636,212.16 238.572,212.16 C239.644,212.16 240.476,211.76 240.94,211.36 C241.132,211.2 241.084,211.072 240.972,210.944 L240.524,210.336 C240.396,210.176 240.284,210.24 240.092,210.352 C239.772,210.56 239.244,210.816 238.668,210.816 C237.628,210.816 236.876,209.968 236.828,209.104 L241.18,209.104 C241.324,209.104 241.452,208.992 241.468,208.832 C241.484,208.72 241.5,208.512 241.5,208.4 C241.5,206.688 240.22,205.44 238.556,205.44 C236.636,205.44 235.356,206.992 235.356,208.8 L235.356,208.8 Z M236.908,208.096 C237.004,207.296 237.676,206.672 238.54,206.672 C239.324,206.672 239.964,207.328 240.012,208.096 L236.908,208.096 Z M244.956,211.776 L242.812,216.368 C242.7,216.592 242.844,216.8 243.084,216.8 L244.044,216.8 C244.172,216.8 244.268,216.704 244.316,216.608 L249.212,206.016 C249.324,205.808 249.196,205.6 248.94,205.6 L248.028,205.6 C247.884,205.6 247.756,205.632 247.692,205.776 L245.772,210.032 L245.756,210.032 L243.772,205.776 C243.724,205.68 243.596,205.6 243.5,205.6 L242.444,205.6 C242.204,205.6 242.076,205.808 242.172,206.016 L244.956,211.776 Z M253.676,211.504 C254.012,211.776 254.716,212.16 255.788,212.16 C257.212,212.16 258.156,211.28 258.156,210.288 C258.156,209.088 257.196,208.592 256.028,208.08 C255.404,207.808 255.004,207.632 255.004,207.216 C255.004,206.976 255.18,206.736 255.724,206.736 C256.332,206.736 257.036,207.072 257.036,207.072 C257.164,207.136 257.372,207.088 257.452,206.944 L257.74,206.4 C257.836,206.24 257.756,206.032 257.612,205.936 C257.292,205.728 256.62,205.44 255.724,205.44 C254.188,205.44 253.532,206.4 253.532,207.2 C253.532,208.256 254.364,208.864 255.356,209.296 C256.236,209.696 256.588,209.904 256.588,210.336 C256.588,210.688 256.284,210.88 255.804,210.88 C255.02,210.88 254.316,210.464 254.316,210.464 C254.156,210.368 253.98,210.416 253.916,210.544 L253.58,211.168 C253.516,211.296 253.58,211.44 253.676,211.504 L253.676,211.504 Z M259.692,211.696 C259.692,211.856 259.836,212 259.996,212 L260.908,212 C261.116,212 261.228,211.872 261.228,211.696 L261.228,207.84 C261.308,207.568 261.98,206.832 262.956,206.832 C263.788,206.832 264.316,207.408 264.316,208.448 L264.316,211.696 C264.316,211.856 264.444,212 264.62,212 L265.516,212 C265.676,212 265.82,211.856 265.82,211.696 L265.82,208.48 C265.82,206.736 264.956,205.44 263.148,205.44 C262.124,205.44 261.388,206.016 261.228,206.128 L261.228,201.104 C261.228,200.944 261.084,200.8 260.924,200.8 L259.996,200.8 C259.836,200.8 259.692,200.944 259.692,201.104 L259.692,211.696 Z M267.34,208.784 C267.34,210.624 268.78,212.16 270.572,212.16 C272.364,212.16 273.804,210.624 273.804,208.784 C273.804,206.976 272.364,205.44 270.572,205.44 C268.78,205.44 267.34,206.976 267.34,208.784 L267.34,208.784 Z M268.764,208.784 C268.764,207.712 269.564,206.832 270.572,206.832 C271.58,206.832 272.38,207.712 272.38,208.784 C272.38,209.888 271.58,210.784 270.572,210.784 C269.564,210.784 268.764,209.888 268.764,208.784 L268.764,208.784 Z M275.308,209.136 C275.308,210.8 275.98,212.16 277.9,212.16 C279.196,212.16 279.868,211.408 280.012,211.28 L280.172,211.744 C280.22,211.888 280.3,212 280.46,212 L280.908,212 C281.068,212 281.212,211.856 281.212,211.696 L281.212,205.904 C281.212,205.744 281.068,205.6 280.908,205.6 L280.076,205.6 C279.852,205.6 279.724,205.648 279.724,205.904 L279.724,209.728 C279.676,210.016 279.084,210.784 278.14,210.784 C277.324,210.784 276.828,210.224 276.828,209.184 L276.828,205.904 C276.828,205.744 276.684,205.6 276.524,205.6 L275.612,205.6 C275.452,205.6 275.308,205.744 275.308,205.904 L275.308,209.136 Z M283.292,211.696 C283.292,211.856 283.436,212 283.596,212 L284.508,212 C284.668,212 284.812,211.856 284.812,211.696 L284.812,201.104 C284.812,200.944 284.668,200.8 284.508,200.8 L283.596,200.8 C283.436,200.8 283.292,200.944 283.292,201.104 L283.292,211.696 Z M286.428,208.8 C286.428,210.64 287.724,212.16 289.42,212.16 C290.684,212.16 291.452,211.264 291.452,211.264 L291.58,211.728 C291.628,211.888 291.724,212 291.868,212 L292.348,212 C292.508,212 292.652,211.856 292.652,211.696 L292.652,201.104 C292.652,200.944 292.508,200.8 292.348,200.8 L291.42,200.8 C291.26,200.8 291.116,200.944 291.116,201.104 L291.116,205.792 C290.972,205.744 290.396,205.44 289.58,205.44 C287.804,205.44 286.428,206.928 286.428,208.8 L286.428,208.8 Z M287.916,208.8 C287.916,207.712 288.668,206.832 289.74,206.832 C290.572,206.832 291.132,207.216 291.132,207.216 L291.132,209.824 C291.052,210 290.588,210.784 289.612,210.784 C288.588,210.784 287.916,209.872 287.916,208.8 L287.916,208.8 Z M298.252,211.696 C298.252,211.856 298.396,212 298.556,212 L299.036,212 C299.18,212 299.276,211.888 299.324,211.728 L299.452,211.264 C299.452,211.264 300.22,212.16 301.484,212.16 C303.18,212.16 304.476,210.64 304.476,208.8 C304.476,206.928 303.1,205.44 301.324,205.44 C300.508,205.44 299.932,205.744 299.788,205.792 L299.788,201.104 C299.788,200.944 299.644,200.8 299.484,200.8 L298.556,200.8 C298.396,200.8 298.252,200.944 298.252,201.104 L298.252,211.696 Z M299.772,209.824 L299.772,207.2 C299.772,207.2 300.332,206.832 301.164,206.832 C302.236,206.832 302.988,207.712 302.988,208.8 C302.988,209.872 302.316,210.784 301.292,210.784 C300.316,210.784 299.852,210 299.772,209.824 L299.772,209.824 Z M305.628,208.8 C305.628,210.64 306.908,212.16 308.844,212.16 C309.916,212.16 310.748,211.76 311.212,211.36 C311.404,211.2 311.356,211.072 311.244,210.944 L310.796,210.336 C310.668,210.176 310.556,210.24 310.364,210.352 C310.044,210.56 309.516,210.816 308.94,210.816 C307.9,210.816 307.148,209.968 307.1,209.104 L311.452,209.104 C311.596,209.104 311.724,208.992 311.74,208.832 C311.756,208.72 311.772,208.512 311.772,208.4 C311.772,206.688 310.492,205.44 308.828,205.44 C306.908,205.44 305.628,206.992 305.628,208.8 L305.628,208.8 Z M307.18,208.096 C307.276,207.296 307.948,206.672 308.812,206.672 C309.596,206.672 310.236,207.328 310.284,208.096 L307.18,208.096 Z M312.988,211.056 C312.988,211.664 313.484,212.16 314.092,212.16 C314.716,212.16 315.212,211.664 315.212,211.056 C315.212,210.432 314.716,209.936 314.092,209.936 C313.484,209.936 312.988,210.432 312.988,211.056 L312.988,211.056 Z M136.228,235.696 C136.228,235.856 136.356,236 136.532,236 L137.572,236 C137.732,236 137.876,235.856 137.876,235.696 L137.876,231.488 L142.148,231.488 C142.308,231.488 142.452,231.344 142.452,231.184 L142.452,230.304 C142.452,230.144 142.308,230 142.148,230 L137.876,230 L137.876,226.304 L142.932,226.304 C143.108,226.304 143.236,226.16 143.236,226 L143.236,225.104 C143.236,224.944 143.108,224.8 142.932,224.8 L136.532,224.8 C136.356,224.8 136.228,224.944 136.228,225.104 L136.228,235.696 Z M144.228,235.696 C144.228,235.856 144.372,236 144.532,236 L145.3,236 C145.556,236 145.732,235.968 145.732,235.696 L145.732,231.632 C145.796,231.52 146.244,230.848 147.172,230.848 C147.38,230.848 147.62,230.912 147.716,230.96 C147.86,231.024 148.02,230.992 148.1,230.816 L148.484,230.032 C148.66,229.6 147.924,229.44 147.316,229.44 C146.148,229.44 145.556,230.208 145.444,230.368 L145.268,229.824 C145.236,229.696 145.108,229.6 144.996,229.6 L144.532,229.6 C144.372,229.6 144.228,229.744 144.228,229.904 L144.228,235.696 Z M149.076,232.784 C149.076,234.624 150.516,236.16 152.308,236.16 C154.1,236.16 155.54,234.624 155.54,232.784 C155.54,230.976 154.1,229.44 152.308,229.44 C150.516,229.44 149.076,230.976 149.076,232.784 L149.076,232.784 Z M150.5,232.784 C150.5,231.712 151.3,230.832 152.308,230.832 C153.316,230.832 154.116,231.712 154.116,232.784 C154.116,233.888 153.316,234.784 152.308,234.784 C151.3,234.784 150.5,233.888 150.5,232.784 L150.5,232.784 Z M157.14,235.696 C157.14,235.856 157.284,236 157.444,236 L158.34,236 C158.5,236 158.644,235.856 158.644,235.696 L158.644,231.792 C158.724,231.584 159.268,230.832 160.228,230.832 C161.124,230.832 161.588,231.392 161.588,232.416 L161.588,235.696 C161.588,235.856 161.716,236 161.892,236 L162.74,236 C162.9,236 163.044,235.856 163.044,235.696 L163.044,232.384 C163.044,232.064 163.028,231.76 162.996,231.616 C163.108,231.52 163.668,230.832 164.644,230.832 C165.508,230.832 165.972,231.408 165.972,232.416 L165.972,235.696 C165.972,235.856 166.1,236 166.276,236 L167.172,236 C167.348,236 167.476,235.856 167.476,235.696 L167.476,232.48 C167.476,230.816 166.788,229.44 164.836,229.44 C163.62,229.44 162.692,230.288 162.516,230.464 C162.052,229.808 161.38,229.44 160.452,229.44 C159.22,229.44 158.484,230.192 158.34,230.336 L158.164,229.792 C158.116,229.68 158.036,229.6 157.892,229.6 L157.444,229.6 C157.284,229.6 157.14,229.744 157.14,229.904 L157.14,235.696 Z M172.996,235.696 C172.996,235.856 173.14,236 173.3,236 L173.78,236 C173.924,236 174.02,235.888 174.068,235.728 L174.196,235.264 C174.196,235.264 174.964,236.16 176.228,236.16 C177.924,236.16 179.22,234.64 179.22,232.8 C179.22,230.928 177.844,229.44 176.068,229.44 C175.252,229.44 174.676,229.744 174.532,229.792 L174.532,225.104 C174.532,224.944 174.388,224.8 174.228,224.8 L173.3,224.8 C173.14,224.8 172.996,224.944 172.996,225.104 L172.996,235.696 Z M174.516,233.824 L174.516,231.2 C174.516,231.2 175.076,230.832 175.908,230.832 C176.98,230.832 177.732,231.712 177.732,232.8 C177.732,233.872 177.06,234.784 176.036,234.784 C175.06,234.784 174.596,234 174.516,233.824 L174.516,233.824 Z M180.372,232.8 C180.372,234.64 181.652,236.16 183.588,236.16 C184.66,236.16 185.492,235.76 185.956,235.36 C186.148,235.2 186.1,235.072 185.988,234.944 L185.54,234.336 C185.412,234.176 185.3,234.24 185.108,234.352 C184.788,234.56 184.26,234.816 183.684,234.816 C182.644,234.816 181.892,233.968 181.844,233.104 L186.196,233.104 C186.34,233.104 186.468,232.992 186.484,232.832 C186.5,232.72 186.516,232.512 186.516,232.4 C186.516,230.688 185.236,229.44 183.572,229.44 C181.652,229.44 180.372,230.992 180.372,232.8 L180.372,232.8 Z M181.924,232.096 C182.02,231.296 182.692,230.672 183.556,230.672 C184.34,230.672 184.98,231.328 185.028,232.096 L181.924,232.096 Z M187.412,235.616 C187.412,236.688 188.26,237.12 188.596,237.216 L188.596,237.264 C188.436,237.36 187.652,237.808 187.652,238.768 C187.652,239.808 188.564,240.96 190.82,240.96 C192.948,240.96 194.228,239.712 194.228,238.304 C194.228,236.912 193.108,236.16 191.716,236.16 L189.54,236.16 C189.06,236.16 188.772,235.872 188.772,235.504 C188.772,234.992 189.316,234.72 189.428,234.72 C189.556,234.72 190.004,234.976 190.82,234.976 C192.484,234.976 193.54,233.728 193.54,232.368 C193.54,231.168 192.852,230.656 192.852,230.656 L193.732,230.416 C193.844,230.4 193.908,230.256 193.908,230.144 L193.908,229.744 C193.908,229.568 193.78,229.44 193.604,229.44 L190.804,229.44 C189.172,229.44 188.052,230.752 188.052,232.24 C188.052,233.2 188.548,233.792 188.548,233.792 C188.548,233.792 187.412,234.384 187.412,235.616 L187.412,235.616 Z M190.836,233.744 C190.02,233.744 189.428,233.136 189.428,232.272 C189.428,231.408 190.02,230.8 190.836,230.8 C191.636,230.8 192.18,231.408 192.18,232.272 C192.18,233.136 191.636,233.744 190.836,233.744 L190.836,233.744 Z M189.14,238.512 C189.14,237.792 189.924,237.536 190.02,237.504 C190.484,237.472 190.964,237.472 191.428,237.472 C192.468,237.472 192.628,238.128 192.628,238.384 C192.628,239.152 191.78,239.648 190.804,239.648 C189.828,239.648 189.14,239.168 189.14,238.512 L189.14,238.512 Z M196.148,226.992 C196.676,226.992 197.092,226.576 197.092,226.064 C197.092,225.536 196.676,225.12 196.148,225.12 C195.636,225.12 195.236,225.536 195.236,226.064 C195.236,226.576 195.636,226.992 196.148,226.992 L196.148,226.992 Z M195.412,235.696 C195.412,235.856 195.556,236 195.716,236 L196.628,236 C196.788,236 196.932,235.856 196.932,235.696 L196.932,229.904 C196.932,229.744 196.788,229.6 196.628,229.6 L195.716,229.6 C195.556,229.6 195.412,229.744 195.412,229.904 L195.412,235.696 Z M199.012,235.696 C199.012,235.856 199.156,236 199.316,236 L200.148,236 C200.42,236 200.516,235.904 200.516,235.696 L200.516,231.792 C200.596,231.568 201.284,230.832 202.292,230.832 C203.124,230.832 203.62,231.392 203.62,232.416 L203.62,235.696 C203.62,235.856 203.748,236 203.924,236 L204.836,236 C204.996,236 205.14,235.856 205.14,235.696 L205.14,232.48 C205.14,230.816 204.42,229.44 202.468,229.44 C201.188,229.44 200.34,230.208 200.228,230.336 L200.036,229.792 C200.004,229.68 199.908,229.6 199.78,229.6 L199.316,229.6 C199.156,229.6 199.012,229.744 199.012,229.904 L199.012,235.696 Z M207.14,235.696 C207.14,235.856 207.284,236 207.444,236 L208.276,236 C208.548,236 208.644,235.904 208.644,235.696 L208.644,231.792 C208.724,231.568 209.412,230.832 210.42,230.832 C211.252,230.832 211.748,231.392 211.748,232.416 L211.748,235.696 C211.748,235.856 211.876,236 212.052,236 L212.964,236 C213.124,236 213.268,235.856 213.268,235.696 L213.268,232.48 C213.268,230.816 212.548,229.44 210.596,229.44 C209.316,229.44 208.468,230.208 208.356,230.336 L208.164,229.792 C208.132,229.68 208.036,229.6 207.908,229.6 L207.444,229.6 C207.284,229.6 207.14,229.744 207.14,229.904 L207.14,235.696 Z M216.004,226.992 C216.532,226.992 216.948,226.576 216.948,226.064 C216.948,225.536 216.532,225.12 216.004,225.12 C215.492,225.12 215.092,225.536 215.092,226.064 C215.092,226.576 215.492,226.992 216.004,226.992 L216.004,226.992 Z M215.268,235.696 C215.268,235.856 215.412,236 215.572,236 L216.484,236 C216.644,236 216.788,235.856 216.788,235.696 L216.788,229.904 C216.788,229.744 216.644,229.6 216.484,229.6 L215.572,229.6 C215.412,229.6 215.268,229.744 215.268,229.904 L215.268,235.696 Z M218.868,235.696 C218.868,235.856 219.012,236 219.172,236 L220.004,236 C220.276,236 220.372,235.904 220.372,235.696 L220.372,231.792 C220.452,231.568 221.14,230.832 222.148,230.832 C222.98,230.832 223.476,231.392 223.476,232.416 L223.476,235.696 C223.476,235.856 223.604,236 223.78,236 L224.692,236 C224.852,236 224.996,235.856 224.996,235.696 L224.996,232.48 C224.996,230.816 224.276,229.44 222.324,229.44 C221.044,229.44 220.196,230.208 220.084,230.336 L219.892,229.792 C219.86,229.68 219.764,229.6 219.636,229.6 L219.172,229.6 C219.012,229.6 218.868,229.744 218.868,229.904 L218.868,235.696 Z M226.356,235.616 C226.356,236.688 227.204,237.12 227.54,237.216 L227.54,237.264 C227.38,237.36 226.596,237.808 226.596,238.768 C226.596,239.808 227.508,240.96 229.764,240.96 C231.892,240.96 233.172,239.712 233.172,238.304 C233.172,236.912 232.052,236.16 230.66,236.16 L228.484,236.16 C228.004,236.16 227.716,235.872 227.716,235.504 C227.716,234.992 228.26,234.72 228.372,234.72 C228.5,234.72 228.948,234.976 229.764,234.976 C231.428,234.976 232.484,233.728 232.484,232.368 C232.484,231.168 231.796,230.656 231.796,230.656 L232.676,230.416 C232.788,230.4 232.852,230.256 232.852,230.144 L232.852,229.744 C232.852,229.568 232.724,229.44 232.548,229.44 L229.748,229.44 C228.116,229.44 226.996,230.752 226.996,232.24 C226.996,233.2 227.492,233.792 227.492,233.792 C227.492,233.792 226.356,234.384 226.356,235.616 L226.356,235.616 Z M229.78,233.744 C228.964,233.744 228.372,233.136 228.372,232.272 C228.372,231.408 228.964,230.8 229.78,230.8 C230.58,230.8 231.124,231.408 231.124,232.272 C231.124,233.136 230.58,233.744 229.78,233.744 L229.78,233.744 Z M228.084,238.512 C228.084,237.792 228.868,237.536 228.964,237.504 C229.428,237.472 229.908,237.472 230.372,237.472 C231.412,237.472 231.572,238.128 231.572,238.384 C231.572,239.152 230.724,239.648 229.748,239.648 C228.772,239.648 228.084,239.168 228.084,238.512 L228.084,238.512 Z M238.292,234.256 C238.292,235.392 238.66,236.16 239.924,236.16 C240.692,236.16 241.636,235.776 241.796,235.68 C241.956,235.6 242.02,235.472 241.94,235.296 L241.652,234.592 C241.588,234.448 241.492,234.352 241.284,234.448 C241.092,234.544 240.644,234.736 240.308,234.736 C240.004,234.736 239.796,234.64 239.796,234.096 L239.796,230.928 L241.428,230.928 C241.604,230.928 241.732,230.784 241.732,230.624 L241.732,229.904 C241.732,229.728 241.604,229.6 241.428,229.6 L239.796,229.6 L239.796,227.808 C239.796,227.648 239.668,227.504 239.508,227.504 L238.596,227.52 C238.436,227.52 238.292,227.664 238.292,227.824 L238.292,229.6 L237.62,229.6 C237.444,229.6 237.316,229.728 237.316,229.904 L237.316,230.624 C237.316,230.784 237.444,230.928 237.62,230.928 L238.292,230.928 L238.292,234.256 Z M242.932,232.784 C242.932,234.624 244.372,236.16 246.164,236.16 C247.956,236.16 249.396,234.624 249.396,232.784 C249.396,230.976 247.956,229.44 246.164,229.44 C244.372,229.44 242.932,230.976 242.932,232.784 L242.932,232.784 Z M244.356,232.784 C244.356,231.712 245.156,230.832 246.164,230.832 C247.172,230.832 247.972,231.712 247.972,232.784 C247.972,233.888 247.172,234.784 246.164,234.784 C245.156,234.784 244.356,233.888 244.356,232.784 L244.356,232.784 Z M254.052,232.8 C254.052,234.64 255.332,236.16 257.268,236.16 C258.34,236.16 259.172,235.76 259.636,235.36 C259.828,235.2 259.78,235.072 259.668,234.944 L259.22,234.336 C259.092,234.176 258.98,234.24 258.788,234.352 C258.468,234.56 257.94,234.816 257.364,234.816 C256.324,234.816 255.572,233.968 255.524,233.104 L259.876,233.104 C260.02,233.104 260.148,232.992 260.164,232.832 C260.18,232.72 260.196,232.512 260.196,232.4 C260.196,230.688 258.916,229.44 257.252,229.44 C255.332,229.44 254.052,230.992 254.052,232.8 L254.052,232.8 Z M255.604,232.096 C255.7,231.296 256.372,230.672 257.236,230.672 C258.02,230.672 258.66,231.328 258.708,232.096 L255.604,232.096 Z M261.732,235.696 C261.732,235.856 261.876,236 262.036,236 L262.868,236 C263.14,236 263.236,235.904 263.236,235.696 L263.236,231.792 C263.316,231.568 264.004,230.832 265.012,230.832 C265.844,230.832 266.34,231.392 266.34,232.416 L266.34,235.696 C266.34,235.856 266.468,236 266.644,236 L267.556,236 C267.716,236 267.86,235.856 267.86,235.696 L267.86,232.48 C267.86,230.816 267.14,229.44 265.188,229.44 C263.908,229.44 263.06,230.208 262.948,230.336 L262.756,229.792 C262.724,229.68 262.628,229.6 262.5,229.6 L262.036,229.6 C261.876,229.6 261.732,229.744 261.732,229.904 L261.732,235.696 Z M269.396,232.8 C269.396,234.64 270.692,236.16 272.388,236.16 C273.652,236.16 274.42,235.264 274.42,235.264 L274.548,235.728 C274.596,235.888 274.692,236 274.836,236 L275.316,236 C275.476,236 275.62,235.856 275.62,235.696 L275.62,225.104 C275.62,224.944 275.476,224.8 275.316,224.8 L274.388,224.8 C274.228,224.8 274.084,224.944 274.084,225.104 L274.084,229.792 C273.94,229.744 273.364,229.44 272.548,229.44 C270.772,229.44 269.396,230.928 269.396,232.8 L269.396,232.8 Z M270.884,232.8 C270.884,231.712 271.636,230.832 272.708,230.832 C273.54,230.832 274.1,231.216 274.1,231.216 L274.1,233.824 C274.02,234 273.556,234.784 272.58,234.784 C271.556,234.784 270.884,233.872 270.884,232.8 L270.884,232.8 Z M277.38,235.056 C277.38,235.664 277.876,236.16 278.484,236.16 C279.108,236.16 279.604,235.664 279.604,235.056 C279.604,234.432 279.108,233.936 278.484,233.936 C277.876,233.936 277.38,234.432 277.38,235.056 L277.38,235.056 Z" id="Listen-to-albums-as-"></path>
        </g>
    </g>
</svg>